solid Visualization Toolkit generated SLA File
 facet normal 0.57735026918962584 -0.57735026918962584 -0.57735026918962584
  outer loop
   vertex 0 0 0
   vertex 0.5 0.5 0
   vertex 0.5 0 0.5
  endloop
 endfacet
 facet normal -0.57735026918962584 -0.57735026918962584 0.57735026918962584
  outer loop
   vertex 0 0 0
   vertex 0.5 0 0.5
   vertex 0 0.5 0.5
  endloop
 endfacet
 facet normal -0.57735026918962584 0.57735026918962584 -0.57735026918962584
  outer loop
   vertex 0 0 0
   vertex 0 0.5 0.5
   vertex 0.5 0.5 0
  endloop
 endfacet
 facet normal 0.57735026918962584 0.57735026918962584 0.57735026918962584
  outer loop
   vertex 0.5 0.5 0
   vertex 0 0.5 0.5
   vertex 0.5 0 0.5
  endloop
 endfacet
 endsolid
