solid Visualization Toolkit generated SLA File
  facet normal -0.57735026918962584 -0.57735026918962584 0.57735026918962584
  outer loop
   vertex 0 1 1
   vertex 0 0.5 0.5
   vertex 0.5 0.5 1
  endloop
 endfacet
 facet normal 0.57735026918962584 0.57735026918962584 0.57735026918962584
  outer loop
   vertex 0 1 1
   vertex 0.5 0.5 1
   vertex 0.5 1 0.5
  endloop
 endfacet
 facet normal -0.57735026918962584 0.57735026918962584 -0.57735026918962584
  outer loop
   vertex 0 1 1
   vertex 0.5 1 0.5
   vertex 0 0.5 0.5
  endloop
 endfacet
 facet normal -0.57735026918962584 -0.57735026918962584 -0.57735026918962584
  outer loop
   vertex 0.5 0.5 0
   vertex 0.5 0 0.5
   vertex 0 0.5 0.5
  endloop
 endfacet
 facet normal -0.57735026918962584 0.57735026918962584 -0.57735026918962584
  outer loop
   vertex 0.5 0.5 0
   vertex 0 0.5 0.5
   vertex 0.5 1 0.5
  endloop
 endfacet
 facet normal 0.57735026918962584 0.57735026918962584 -0.57735026918962584
  outer loop
   vertex 0.5 0.5 0
   vertex 0.5 1 0.5
   vertex 1 0.5 0.5
  endloop
 endfacet
 facet normal 0.57735026918962584 -0.57735026918962584 -0.57735026918962584
  outer loop
   vertex 0.5 0.5 0
   vertex 1 0.5 0.5
   vertex 0.5 0 0.5
  endloop
 endfacet
 facet normal -0.57735026918962584 -0.57735026918962584 0.57735026918962584
  outer loop
   vertex 0 0.5 0.5
   vertex 0.5 0 0.5
   vertex 0.5 0.5 1
  endloop
 endfacet
 facet normal 0.57735026918962584 0.57735026918962584 0.57735026918962584
  outer loop
   vertex 0.5 1 0.5
   vertex 0.5 0.5 1
   vertex 1 0.5 0.5
  endloop
 endfacet
 facet normal 0.57735026918962584 -0.57735026918962584 0.57735026918962584
  outer loop
   vertex 1 0.5 0.5
   vertex 0.5 0.5 1
   vertex 0.5 0 0.5
  endloop
 endfacet
endsolid
